<?xml version="1.0" standalone="no"?>
<!DOCTYPE svg PUBLIC "-//W3C//DTD SVG 20010904//EN"
 "http://www.w3.org/TR/2001/REC-SVG-20010904/DTD/svg10.dtd">
<svg version="1.0" xmlns="http://www.w3.org/2000/svg"
 width="374.000000pt" height="294.000000pt" viewBox="0 0 374.000000 294.000000"
 preserveAspectRatio="xMidYMid meet">

<g transform="translate(0.000000,294.000000) scale(0.100000,-0.100000)"
fill="#000000" stroke="none">
<path d="M0 1470 l0 -1470 1870 0 1870 0 0 1470 0 1470 -1870 0 -1870 0 0
-1470z m2163 1329 c107 -14 285 -72 389 -126 341 -179 587 -515 654 -893 22
-123 22 -317 0 -440 -81 -458 -414 -837 -856 -974 -148 -46 -225 -57 -385 -57
-332 1 -613 113 -858 341 -463 433 -522 1157 -136 1670 107 142 282 287 444
368 33 16 110 45 170 65 189 61 362 75 578 46z"/>
<path d="M1805 2789 c-301 -52 -520 -162 -711 -355 -283 -287 -408 -669 -349
-1066 66 -437 386 -824 803 -973 440 -156 902 -65 1255 249 112 100 203 222
277 371 64 130 93 220 115 360 27 168 15 358 -35 535 -29 107 -128 300 -205
402 -159 212 -412 379 -673 448 -140 37 -357 50 -477 29z m371 -34 c255 -45
497 -175 674 -361 190 -201 310 -467 328 -729 26 -380 -91 -699 -353 -960
-235 -236 -523 -355 -855 -355 -332 0 -620 119 -855 355 -262 261 -379 580
-353 960 18 262 138 528 328 729 174 183 418 315 666 360 107 19 311 20 420 1z"/>
<path d="M1838 2739 c-305 -30 -602 -198 -810 -458 -72 -90 -168 -283 -202
-407 -54 -193 -54 -435 0 -628 34 -124 130 -317 202 -407 214 -269 503 -428
830 -459 407 -38 790 128 1054 459 72 90 168 283 202 407 54 193 54 435 0 628
-34 124 -130 317 -202 407 -213 268 -502 428 -828 459 -120 11 -121 11 -246
-1z m319 -555 c4 -10 -1 -22 -10 -29 -10 -7 -17 -17 -17 -24 0 -6 -7 -14 -15
-17 -8 -4 -15 -13 -15 -20 0 -8 -7 -17 -15 -20 -8 -4 -15 -13 -15 -20 0 -8 -7
-17 -15 -20 -8 -4 -15 -13 -15 -20 0 -8 -7 -17 -15 -20 -8 -4 -15 -12 -15 -19
0 -20 -19 -28 -35 -15 -16 13 -9 40 11 40 8 0 13 3 13 8 -3 20 2 32 16 32 8 0
14 3 14 8 -3 20 2 32 16 32 8 0 14 3 14 8 -3 20 2 32 16 32 8 0 14 3 14 8 -3
20 2 32 16 32 8 0 14 3 14 8 -5 33 26 46 38 16z m-417 -17 c0 -2 -18 -23 -40
-48 -22 -24 -52 -68 -66 -97 -33 -70 -44 -60 -11 10 27 61 117 163 117 135z
m50 -1 c0 -3 -4 -8 -10 -11 -5 -3 -10 -1 -10 4 0 6 5 11 10 11 6 0 10 -2 10
-4z m50 -10 c0 -3 -4 -8 -10 -11 -5 -3 -10 -1 -10 4 0 6 5 11 10 11 6 0 10 -2
10 -4z m45 -6 c3 -5 -1 -10 -10 -10 -9 0 -13 5 -10 10 3 6 8 10 10 10 2 0 7
-4 10 -10z m295 -20 c0 -11 -6 -20 -14 -20 -18 0 -29 16 -21 30 11 18 35 11
35 -10z m-200 0 c0 -5 -2 -10 -4 -10 -3 0 -8 5 -11 10 -3 6 -1 10 4 10 6 0 11
-4 11 -10z m310 -95 c15 -33 31 -73 35 -90 10 -44 -9 -19 -28 38 -9 26 -29 67
-44 90 -45 66 -48 74 -19 47 15 -13 40 -51 56 -85z m-530 87 c0 -13 -12 -22
-22 -16 -10 6 -1 24 13 24 5 0 9 -4 9 -8z m270 -2 c0 -5 -2 -10 -4 -10 -3 0
-8 5 -11 10 -3 6 -1 10 4 10 6 0 11 -4 11 -10z m-220 -10 c0 -5 -4 -10 -10
-10 -5 0 -10 5 -10 10 0 6 5 10 10 10 6 0 10 -4 10 -10z m50 -10 c0 -5 -4 -10
-10 -10 -5 0 -10 5 -10 10 0 6 5 10 10 10 6 0 10 -4 10 -10z m47 -16 c-9 -9
-28 6 -21 18 4 6 10 6 17 -1 6 -6 8 -13 4 -17z m243 6 c0 -21 -24 -28 -35 -10
-8 14 3 30 21 30 8 0 14 -9 14 -20z m-196 -11 c-3 -5 -10 -7 -15 -3 -5 3 -7
10 -3 15 3 5 10 7 15 3 5 -3 7 -10 3 -15z m252 10 c10 -17 -13 -36 -27 -22
-12 12 -4 33 11 33 5 0 12 -5 16 -11z m-202 -20 c-3 -5 -10 -7 -15 -3 -5 3 -7
10 -3 15 3 5 10 7 15 3 5 -3 7 -10 3 -15z m-274 1 c0 -5 -4 -10 -10 -10 -5 0
-10 5 -10 10 0 6 5 10 10 10 6 0 10 -4 10 -10z m50 -5 c0 -8 -4 -15 -9 -15
-13 0 -22 16 -14 24 11 11 23 6 23 -9z m50 -10 c0 -8 -4 -15 -9 -15 -13 0 -22
16 -14 24 11 11 23 6 23 -9z m290 -5 c0 -21 -24 -28 -35 -10 -8 14 3 30 21 30
8 0 14 -9 14 -20z m-240 -5 c0 -8 -4 -15 -9 -15 -13 0 -22 16 -14 24 11 11 23
6 23 -9z m296 4 c10 -17 -13 -36 -27 -22 -12 12 -4 33 11 33 5 0 12 -5 16 -11z
m-248 -10 c-2 -6 -8 -10 -13 -10 -5 0 -11 4 -13 10 -2 6 4 11 13 11 9 0 15 -5
13 -11z m52 -10 c0 -5 -7 -9 -15 -9 -15 0 -20 12 -9 23 8 8 24 -1 24 -14z
m250 6 c0 -8 -7 -15 -15 -15 -8 0 -15 7 -15 15 0 8 7 15 15 15 8 0 15 -7 15
-15z m-525 -6 c10 -15 -1 -23 -20 -15 -9 3 -13 10 -10 16 8 13 22 13 30 -1z
m50 -8 c7 -12 -12 -24 -25 -16 -11 7 -4 25 10 25 5 0 11 -4 15 -9z m335 -11
c0 -11 -6 -20 -14 -20 -18 0 -29 16 -21 30 11 18 35 11 35 -10z m-282 -2 c-3
-7 -11 -13 -18 -13 -7 0 -15 6 -17 13 -3 7 4 12 17 12 13 0 20 -5 18 -12z m47
2 c3 -6 -1 -13 -10 -16 -19 -8 -30 0 -20 15 8 14 22 14 30 1z m291 -1 c10 -17
-13 -36 -27 -22 -12 12 -4 33 11 33 5 0 12 -5 16 -11z m-241 -9 c3 -6 -1 -13
-10 -16 -19 -8 -30 0 -20 15 8 14 22 14 30 1z m295 -5 c0 -8 -7 -15 -15 -15
-8 0 -15 7 -15 15 0 8 7 15 15 15 8 0 15 -7 15 -15z m-523 -10 c7 -20 -2 -29
-21 -22 -9 4 -13 13 -10 22 8 19 23 19 31 0z m274 0 c-1 -15 -24 -12 -29 3 -3
9 2 13 12 10 10 -1 17 -7 17 -13z m307 4 c-2 -6 -8 -10 -13 -10 -5 0 -11 4
-13 10 -2 6 4 11 13 11 9 0 15 -5 13 -11z m-532 -10 c10 -17 -13 -36 -27 -22
-12 12 -4 33 11 33 5 0 12 -5 16 -11z m334 -9 c0 -21 -24 -28 -35 -10 -8 14 3
30 21 30 8 0 14 -9 14 -20z m-280 -4 c0 -8 -4 -17 -8 -20 -13 -8 -35 11 -28
23 10 16 36 14 36 -3z m336 3 c10 -17 -13 -36 -27 -22 -12 12 -4 33 11 33 5 0
12 -5 16 -11z m-286 -14 c0 -8 -9 -15 -20 -15 -11 0 -20 7 -20 15 0 8 9 15 20
15 11 0 20 -7 20 -15z m46 4 c10 -17 -13 -36 -27 -22 -12 12 -4 33 11 33 5 0
12 -5 16 -11z m294 -4 c0 -8 -7 -15 -15 -15 -8 0 -15 7 -15 15 0 8 7 15 15 15
8 0 15 -7 15 -15z m-244 -6 c10 -17 -13 -36 -27 -22 -12 12 -4 33 11 33 5 0
12 -5 16 -11z m302 0 c-2 -6 -8 -10 -13 -10 -5 0 -11 4 -13 10 -2 6 4 11 13
11 9 0 15 -5 13 -11z m-530 -22 c5 -23 -14 -29 -32 -11 -9 8 -16 11 -16 5 0
-14 -27 -14 -35 -1 -12 19 5 29 43 26 23 -2 38 -9 40 -19z m332 3 c0 -11 -6
-20 -14 -20 -18 0 -29 16 -21 30 11 18 35 11 35 -10z m250 10 c0 -5 -4 -10
-10 -10 -5 0 -10 5 -10 10 0 6 5 10 10 10 6 0 10 -4 10 -10z m-532 -23 c2 -10
-3 -17 -12 -17 -18 0 -29 16 -21 31 9 14 29 6 33 -14z m338 12 c10 -17 -13
-36 -27 -22 -12 12 -4 33 11 33 5 0 12 -5 16 -11z m-286 -19 c0 -11 -6 -20
-14 -20 -18 0 -29 16 -21 30 11 18 35 11 35 -10z m340 5 c0 -8 -7 -15 -15 -15
-8 0 -15 7 -15 15 0 8 7 15 15 15 8 0 15 -7 15 -15z m-292 -12 c-2 -10 -10
-18 -18 -18 -8 0 -16 8 -18 18 -2 12 3 17 18 17 15 0 20 -5 18 -17z m49 -17
c-4 -9 -13 -13 -22 -10 -18 7 -20 31 -2 37 17 6 31 -9 24 -27z m301 23 c-2 -6
-8 -10 -13 -10 -5 0 -11 4 -13 10 -2 6 4 11 13 11 9 0 15 -5 13 -11z m-574 -6
c3 -4 23 -7 44 -8 21 -1 43 -4 49 -8 6 -4 18 -4 26 -1 8 3 18 1 22 -5 3 -6 17
-8 31 -5 15 4 24 2 24 -6 0 -7 8 -9 21 -5 22 7 43 -11 33 -27 -8 -12 -44 -10
-44 3 0 8 -4 8 -15 -1 -8 -7 -20 -8 -27 -4 -7 5 -20 7 -30 6 -9 -2 -19 2 -22
7 -4 6 -13 8 -21 4 -9 -3 -22 0 -29 6 -10 9 -16 9 -21 1 -5 -8 -11 -8 -21 1
-7 6 -20 9 -27 6 -20 -8 -41 9 -34 27 7 16 28 21 41 9z m626 -3 c0 -5 -4 -10
-10 -10 -5 0 -10 5 -10 10 0 6 5 10 10 10 6 0 10 -4 10 -10z m-194 -11 c10
-17 -13 -36 -27 -22 -12 12 -4 33 11 33 5 0 12 -5 16 -11z m54 -14 c0 -8 -7
-15 -15 -15 -8 0 -15 7 -15 15 0 8 7 15 15 15 8 0 15 -7 15 -15z m58 -6 c-2
-6 -8 -10 -13 -10 -5 0 -11 4 -13 10 -2 6 4 11 13 11 9 0 15 -5 13 -11z m52
-9 c0 -5 -4 -10 -10 -10 -5 0 -10 5 -10 10 0 6 5 10 10 10 6 0 10 -4 10 -10z
m-140 -25 c0 -8 -7 -15 -15 -15 -8 0 -15 7 -15 15 0 8 7 15 15 15 8 0 15 -7
15 -15z m58 -6 c-2 -6 -8 -10 -13 -10 -5 0 -11 4 -13 10 -2 6 4 11 13 11 9 0
15 -5 13 -11z m52 -9 c0 -5 -4 -10 -10 -10 -5 0 -10 5 -10 10 0 6 5 10 10 10
6 0 10 -4 10 -10z m-250 -26 c0 -14 -21 -19 -33 -7 -9 9 13 34 24 27 5 -3 9
-12 9 -20z m60 1 c0 -16 -27 -27 -36 -14 -3 5 -3 16 0 24 6 17 36 9 36 -10z
m47 14 c6 -6 9 -18 6 -25 -3 -8 0 -14 6 -14 6 0 11 -11 11 -25 0 -14 5 -25 10
-25 6 0 10 -9 10 -19 0 -11 5 -23 11 -27 6 -3 9 -14 6 -24 -3 -11 1 -21 9 -24
8 -3 14 -15 14 -26 0 -11 5 -20 10 -20 16 0 11 -30 -6 -37 -22 -8 -40 12 -25
30 9 12 7 16 -10 20 -14 4 -20 11 -16 21 8 21 -19 42 -37 27 -10 -8 -16 -8
-25 2 -6 8 -8 17 -5 20 4 3 -1 14 -10 23 -12 11 -14 20 -7 27 13 13 44 1 39
-15 -6 -16 20 -43 30 -33 4 4 1 10 -5 12 -7 3 -13 16 -13 29 0 13 -5 24 -11
24 -6 0 -9 8 -7 18 2 9 -3 22 -11 28 -8 6 -11 18 -8 28 7 19 19 20 34 5z
m-327 -9 c0 -5 -4 -10 -10 -10 -5 0 -10 5 -10 10 0 6 5 10 10 10 6 0 10 -4 10
-10z m50 0 c0 -5 -4 -10 -10 -10 -5 0 -10 5 -10 10 0 6 5 10 10 10 6 0 10 -4
10 -10z m58 -1 c-2 -6 -8 -10 -13 -10 -5 0 -11 4 -13 10 -2 6 4 11 13 11 9 0
15 -5 13 -11z m62 2 c0 -14 -18 -23 -30 -16 -6 4 -8 11 -5 16 8 12 35 12 35 0z
m218 -12 c-2 -6 -8 -10 -13 -10 -5 0 -11 4 -13 10 -2 6 4 11 13 11 9 0 15 -5
13 -11z m52 -9 c0 -5 -4 -10 -10 -10 -5 0 -10 5 -10 10 0 6 5 10 10 10 6 0 10
-4 10 -10z m-310 -31 c0 -5 -7 -9 -15 -9 -15 0 -20 12 -9 23 8 8 24 -1 24 -14z
m50 7 c0 -8 -4 -17 -9 -21 -12 -7 -24 12 -16 25 9 15 25 12 25 -4z m56 3 c8
-14 -11 -33 -25 -25 -11 7 -4 36 9 36 5 0 12 -5 16 -11z m59 -9 c0 -8 -8 -16
-17 -18 -13 -2 -18 3 -18 18 0 15 5 20 18 18 9 -2 17 -10 17 -18z m-275 6 c0
-3 -4 -8 -10 -11 -5 -3 -10 -1 -10 4 0 6 5 11 10 11 6 0 10 -2 10 -4z m50 -6
c0 -5 -4 -10 -10 -10 -5 0 -10 5 -10 10 0 6 5 10 10 10 6 0 10 -4 10 -10z
m340 -10 c0 -5 -4 -10 -10 -10 -5 0 -10 5 -10 10 0 6 5 10 10 10 6 0 10 -4 10
-10z m-375 -30 c3 -5 1 -10 -4 -10 -6 0 -11 5 -11 10 0 6 2 10 4 10 3 0 8 -4
11 -10z m55 0 c0 -5 -4 -10 -10 -10 -5 0 -10 5 -10 10 0 6 5 10 10 10 6 0 10
-4 10 -10z m52 -5 c0 -5 -5 -11 -11 -13 -6 -2 -11 4 -11 13 0 9 5 15 11 13 6
-2 11 -8 11 -13z m63 5 c3 -6 -1 -13 -10 -16 -19 -8 -30 0 -20 15 8 14 22 14
30 1z m55 -4 c0 -8 -4 -17 -8 -20 -13 -8 -35 11 -28 23 10 16 36 14 36 -3z
m-40 -52 c0 -16 -16 -19 -25 -4 -8 13 4 32 16 25 5 -4 9 -13 9 -21z m52 -6
c-9 -9 -15 -9 -24 0 -10 10 -10 15 2 22 9 6 19 5 24 0 7 -7 6 -14 -2 -22z
m-162 12 c0 -5 -4 -10 -10 -10 -5 0 -10 5 -10 10 0 6 5 10 10 10 6 0 10 -4 10
-10z m58 -1 c-2 -6 -8 -10 -13 -10 -5 0 -11 4 -13 10 -2 6 4 11 13 11 9 0 15
-5 13 -11z m-98 -45 c0 -8 -5 -12 -10 -9 -6 4 -8 11 -5 16 9 14 15 11 15 -7z
m60 -5 c0 -5 -4 -9 -10 -9 -5 0 -10 7 -10 16 0 8 5 12 10 9 6 -3 10 -10 10
-16z m52 6 c0 -5 -5 -11 -11 -13 -6 -2 -11 4 -11 13 0 9 5 15 11 13 6 -2 11
-8 11 -13z m58 1 c0 -8 -4 -17 -9 -21 -12 -7 -24 12 -16 25 9 15 25 12 25 -4z
m56 3 c10 -17 -13 -36 -27 -22 -12 12 -4 33 11 33 5 0 12 -5 16 -11z m54 -9
c0 -21 -24 -28 -35 -10 -8 14 3 30 21 30 8 0 14 -9 14 -20z m17 -54 c-4 -9
-11 -16 -17 -16 -17 0 -24 31 -9 41 18 11 34 -5 26 -25z m-332 14 c3 -5 1 -10
-4 -10 -6 0 -11 5 -11 10 0 6 2 10 4 10 3 0 8 -4 11 -10z m55 0 c0 -5 -4 -10
-10 -10 -5 0 -10 5 -10 10 0 6 5 10 10 10 6 0 10 -4 10 -10z m60 0 c0 -5 -7
-10 -16 -10 -8 0 -12 5 -9 10 3 6 10 10 16 10 5 0 9 -4 9 -10z m52 -5 c0 -5
-5 -11 -11 -13 -6 -2 -11 4 -11 13 0 9 5 15 11 13 6 -2 11 -8 11 -13z m58 0
c0 -8 -7 -15 -15 -15 -8 0 -15 7 -15 15 0 8 7 15 15 15 8 0 15 -7 15 -15z m53
0 c1 -5 -6 -11 -15 -13 -11 -2 -18 3 -18 13 0 17 30 18 33 0z m-73 -43 c73 -3
106 -8 90 -13 -63 -18 -220 -3 -237 24 -4 7 0 8 13 2 10 -5 71 -11 134 -13z
m-425 -182 c22 -9 24 -12 13 -30 -8 -13 -24 -20 -44 -20 -50 0 -81 -48 -63
-99 13 -37 58 -58 89 -41 18 9 25 8 41 -6 31 -28 2 -49 -66 -49 -48 0 -58 4
-86 32 -63 62 -46 167 32 206 40 19 49 20 84 7z m268 -12 c50 -26 72 -120 42
-178 -46 -89 -190 -73 -223 24 -37 112 76 208 181 154z m305 -85 l3 -103 54 0
c52 0 55 -1 55 -25 0 -24 -3 -25 -62 -25 -50 0 -66 4 -85 22 -21 20 -23 30
-23 123 0 56 3 105 7 109 4 4 16 6 28 4 18 -3 20 -11 23 -105z m192 -24 l0
-131 -29 24 c-30 23 -30 24 -30 131 l-1 107 30 0 30 0 0 -131z m114 58 l41
-68 5 68 c5 65 6 68 30 68 25 0 25 -1 28 -100 3 -99 2 -101 -26 -128 l-29 -28
-44 73 -44 73 -3 -67 c-2 -38 -6 -68 -9 -68 -4 0 -15 7 -25 17 -15 14 -18 32
-18 125 l0 109 27 -3 c21 -2 35 -17 67 -71z m186 23 l5 -44 33 42 c34 43 46
48 71 33 11 -7 7 -18 -19 -55 l-33 -46 38 -62 c21 -35 40 -66 42 -70 2 -5 -10
-8 -27 -8 -26 0 -35 7 -58 45 -15 25 -31 44 -37 42 -5 -2 -11 -20 -13 -40 -4
-42 -4 -43 -37 -21 -24 16 -25 20 -25 126 l0 109 28 -3 c24 -3 28 -8 32 -48z
m-1266 15 c-12 -19 -25 -25 -50 -25 -27 0 -34 -4 -34 -20 0 -17 7 -20 50 -20
49 0 50 -1 50 -30 0 -29 -1 -30 -50 -30 -47 0 -50 -2 -50 -25 0 -24 3 -25 55
-25 52 0 55 -1 55 -25 0 -24 -2 -25 -64 -25 -89 0 -96 11 -96 147 l0 103 75 0
75 0 -16 -25z m696 -90 c0 -24 -2 -25 -70 -25 -68 0 -70 1 -70 25 0 24 2 25
70 25 68 0 70 -1 70 -25z m710 -195 c0 -7 -263 -10 -770 -10 -507 0 -770 3
-770 10 0 7 263 10 770 10 507 0 770 -3 770 -10z m-1220 -49 c0 -6 -4 -13 -10
-16 -5 -3 -10 -1 -10 6 0 10 -3 10 -12 0 -11 -11 -10 -14 0 -18 10 -4 8 -9 -7
-20 -12 -8 -21 -18 -21 -24 0 -14 28 -11 33 4 3 7 6 5 6 -5 1 -20 -43 -26 -54
-8 -11 17 34 90 55 90 11 0 20 -4 20 -9z m124 -27 c-17 -40 -12 -58 6 -25 12
24 40 28 40 6 0 -12 4 -11 20 5 11 11 28 17 40 15 14 -3 24 3 31 18 9 20 9 20
4 -5 -3 -14 -8 -34 -12 -45 -4 -11 3 -7 16 10 13 15 27 25 32 22 13 -9 11 -25
-2 -22 -6 1 -14 -4 -16 -10 -8 -22 24 -14 40 10 8 12 24 23 36 23 24 0 24 -1
11 -27 -7 -11 -7 -19 -1 -19 5 0 12 13 16 29 3 16 14 36 23 43 14 11 15 11 9
-5 -4 -11 -10 -31 -13 -45 -4 -21 -3 -24 5 -12 6 8 11 10 11 4 0 -6 -6 -16
-12 -21 -14 -11 -157 -12 -174 -1 -6 4 -16 -3 -22 -17 -7 -14 -17 -25 -23 -25
-8 0 -8 4 0 13 15 18 -6 39 -28 28 -18 -9 -57 -8 -67 2 -4 3 -14 3 -23 -1 -9
-4 -29 -7 -46 -7 -23 0 -31 5 -33 22 -3 22 29 49 42 36 12 -12 6 -22 -9 -17
-9 4 -15 0 -15 -10 0 -24 18 -19 45 12 l24 27 10 -25 c5 -14 10 -20 10 -13 2
23 21 63 30 63 6 0 3 -16 -5 -36z m404 19 c-2 -9 -9 -18 -16 -21 -8 -2 -10 3
-6 15 5 16 4 16 -10 -1 -9 -11 -16 -31 -16 -44 0 -22 2 -23 17 -11 9 8 26 22
36 33 15 15 21 16 28 5 4 -7 5 -18 2 -24 -2 -5 4 -1 14 11 24 27 48 25 47 -5
-1 -23 -1 -23 15 -3 9 11 25 22 36 24 16 2 19 -2 18 -20 -3 -22 -2 -22 21 5
22 26 25 26 32 9 4 -11 2 -21 -7 -27 -8 -5 -9 -9 -3 -9 14 0 36 25 28 32 -3 3
-1 9 5 13 6 3 11 2 11 -4 0 -6 7 -8 16 -4 14 5 15 3 5 -15 -7 -12 -8 -22 -2
-22 5 0 16 19 25 41 9 23 19 39 22 37 2 -3 0 -17 -6 -32 -16 -43 -12 -49 14
-19 l25 28 9 -25 c9 -24 9 -24 16 -4 9 30 52 25 48 -6 -2 -14 0 -20 7 -16 6 4
11 3 11 -2 0 -13 -28 -23 -35 -12 -3 4 -2 16 2 25 4 13 2 16 -8 13 -7 -2 -16
-15 -19 -29 -4 -16 -8 -20 -14 -11 -4 7 -14 9 -24 4 -9 -4 -57 -8 -107 -7 -88
0 -90 1 -87 24 2 20 0 22 -13 11 -8 -7 -15 -18 -15 -24 0 -7 -9 -12 -19 -13
-14 -1 -21 6 -23 25 l-4 27 -12 -25 c-9 -18 -22 -25 -42 -26 -17 -1 -30 4 -30
9 0 7 -4 7 -12 -1 -7 -7 -20 -12 -30 -12 -23 0 -25 46 -2 78 18 26 57 30 52 5z"/>
<path d="M1692 1267 c-12 -13 -22 -36 -22 -51 0 -32 40 -76 70 -76 28 0 70 44
70 73 0 13 -9 36 -21 51 -26 33 -68 34 -97 3z"/>
<path d="M1716 925 c-3 -8 -1 -15 4 -15 6 0 10 7 10 15 0 8 -2 15 -4 15 -2 0
-6 -7 -10 -15z"/>
<path d="M1856 931 c-4 -7 -5 -15 -2 -18 9 -9 19 4 14 18 -4 11 -6 11 -12 0z"/>
</g>
</svg>
